<svg xmlns="http://www.w3.org/2000/svg" xmlns:xlink="http://www.w3.org/1999/xlink" contentStyleType="text/css" data-diagram-type="CLASS" height="210px" preserveAspectRatio="none" style="width:113px;height:210px;background:#FFFFFF;" version="1.1" viewBox="0 0 113 210" width="113px" zoomAndPan="magnify"><?plantuml 1.2026.6?><defs/><g><!--class Val--><g class="entity" data-qualified-name="Val" data-source-line="2" id="ent0001"><rect fill="#F1F1F1" height="48" rx="2.5" ry="2.5" style="stroke:#181818;stroke-width:0.5;" width="54.0459" x="25.64" y="7"/><ellipse cx="40.64" cy="23" fill="#ADD1B2" rx="11" ry="11" style="stroke:#181818;stroke-width:1;"/><path d="M43.6088,28.6406 Q43.0306,28.9375 42.39,29.0781 Q41.7494,29.2344 41.0463,29.2344 Q38.5463,29.2344 37.2181,27.5938 Q35.9056,25.9375 35.9056,22.8125 Q35.9056,19.6875 37.2181,18.0313 Q38.5463,16.375 41.0463,16.375 Q41.7494,16.375 42.39,16.5313 Q43.0463,16.6875 43.6088,16.9844 L43.6088,19.7031 Q42.9838,19.125 42.39,18.8594 Q41.7963,18.5781 41.1713,18.5781 Q39.8275,18.5781 39.14,19.6563 Q38.4525,20.7188 38.4525,22.8125 Q38.4525,24.9063 39.14,25.9844 Q39.8275,27.0469 41.1713,27.0469 Q41.7963,27.0469 42.39,26.7813 Q42.9838,26.5 43.6088,25.9219 L43.6088,28.6406 Z " fill="#000000"/><text fill="#000000" font-family="sans-serif" font-size="14" lengthAdjust="spacing" textLength="22.0459" x="54.64" y="27.8467">Val</text><line style="stroke:#181818;stroke-width:0.5;" x1="26.64" x2="78.6859" y1="39" y2="39"/><line style="stroke:#181818;stroke-width:0.5;" x1="26.64" x2="78.6859" y1="47" y2="47"/></g><!--class IntVal--><g class="entity" data-qualified-name="IntVal" data-source-line="5" id="ent0002"><rect fill="#F1F1F1" height="80.5938" rx="2.5" ry="2.5" style="stroke:#181818;stroke-width:0.5;" width="91.3174" x="7" y="115"/><ellipse cx="30.4511" cy="131" fill="#ADD1B2" rx="11" ry="11" style="stroke:#181818;stroke-width:1;"/><path d="M33.4199,136.6406 Q32.8417,136.9375 32.2011,137.0781 Q31.5605,137.2344 30.8574,137.2344 Q28.3574,137.2344 27.0292,135.5938 Q25.7167,133.9375 25.7167,130.8125 Q25.7167,127.6875 27.0292,126.0313 Q28.3574,124.375 30.8574,124.375 Q31.5605,124.375 32.2011,124.5313 Q32.8574,124.6875 33.4199,124.9844 L33.4199,127.7031 Q32.7949,127.125 32.2011,126.8594 Q31.6074,126.5781 30.9824,126.5781 Q29.6386,126.5781 28.9511,127.6563 Q28.2636,128.7188 28.2636,130.8125 Q28.2636,132.9063 28.9511,133.9844 Q29.6386,135.0469 30.9824,135.0469 Q31.6074,135.0469 32.2011,134.7813 Q32.7949,134.5 33.4199,133.9219 L33.4199,136.6406 Z " fill="#000000"/><text fill="#000000" font-family="sans-serif" font-size="14" lengthAdjust="spacing" textLength="40.5371" x="46.3292" y="135.8467">IntVal</text><line style="stroke:#181818;stroke-width:0.5;" x1="8" x2="97.3174" y1="147" y2="147"/><text fill="#000000" font-family="sans-serif" font-size="14" lengthAdjust="spacing" textLength="52.623" x="13" y="163.9951">val : int</text><line style="stroke:#181818;stroke-width:0.5;" x1="8" x2="97.3174" y1="171.2969" y2="171.2969"/><text fill="#000000" font-family="sans-serif" font-size="14" lengthAdjust="spacing" textLength="79.3174" x="13" y="188.292">__init__(int)</text></g><!--reverse link Val to IntVal--><g class="link" data-entity-1="ent0001" data-entity-2="ent0002" data-link-type="extension" data-source-line="6" id="lnk3"><path d="M52.66,73.29 C52.66,90.06 52.66,95.09 52.66,114.73" fill="none" id="Val-backto-IntVal" style="stroke:#181818;stroke-width:1;"/><polygon fill="none" points="52.66,55.29,46.66,73.29,58.66,73.29,52.66,55.29" style="stroke:#181818;stroke-width:1;stroke-linejoin:miter;stroke-miterlimit:10;"/></g><?plantuml-src Iyv9B2vM24lCKQZcgkNYIWPpFVDAG2Af5IMfUIamMGKWA0Eoh1Goyqh0lFZupBpCalXu3Q209b0t0000?></g></svg>