<svg xmlns="http://www.w3.org/2000/svg" xmlns:xlink="http://www.w3.org/1999/xlink" contentStyleType="text/css" data-diagram-type="CLASS" height="415px" preserveAspectRatio="none" style="width:428px;height:415px;background:#FFFFFF;" version="1.1" viewBox="0 0 428 415" width="428px" zoomAndPan="magnify"><?plantuml 1.2026.6?><defs/><g><!--cluster Environments--><g class="cluster" data-qualified-name="Environments" data-source-line="1" id="ent0001"><path d="M51.5,6 L161.5195,6 A3.75,3.75 0 0 1 164.0195,8.5 L171.0195,28.2969 L410.5,28.2969 A2.5,2.5 0 0 1 413,30.7969 L413,90.5 A2.5,2.5 0 0 1 410.5,93 L51.5,93 A2.5,2.5 0 0 1 49,90.5 L49,8.5 A2.5,2.5 0 0 1 51.5,6" fill="none" style="stroke:#000000;stroke-width:1.5;"/><line style="stroke:#000000;stroke-width:1.5;" x1="49" x2="171.0195" y1="28.2969" y2="28.2969"/><text fill="#000000" font-family="sans-serif" font-size="14" font-weight="700" lengthAdjust="spacing" textLength="109.0195" x="53" y="20.9951">Environments</text></g><!--cluster Bindings--><g class="cluster" data-qualified-name="Bindings" data-source-line="6" id="ent0003"><path d="M8.5,117 L78.0781,117 A3.75,3.75 0 0 1 80.5781,119.5 L87.5781,139.2969 L310.5,139.2969 A2.5,2.5 0 0 1 313,141.7969 L313,233.5 A2.5,2.5 0 0 1 310.5,236 L8.5,236 A2.5,2.5 0 0 1 6,233.5 L6,119.5 A2.5,2.5 0 0 1 8.5,117" fill="none" style="stroke:#000000;stroke-width:1.5;"/><line style="stroke:#000000;stroke-width:1.5;" x1="6" x2="87.5781" y1="139.2969" y2="139.2969"/><text fill="#000000" font-family="sans-serif" font-size="14" font-weight="700" lengthAdjust="spacing" textLength="68.5781" x="10" y="131.9951">Bindings</text></g><!--cluster Values--><g class="cluster" data-qualified-name="Values" data-source-line="19" id="ent0008"><path d="M89.5,260 L143.376,260 A3.75,3.75 0 0 1 145.876,262.5 L152.876,282.2969 L308.5,282.2969 A2.5,2.5 0 0 1 311,284.7969 L311,397.5 A2.5,2.5 0 0 1 308.5,400 L89.5,400 A2.5,2.5 0 0 1 87,397.5 L87,262.5 A2.5,2.5 0 0 1 89.5,260" fill="none" style="stroke:#000000;stroke-width:1.5;"/><line style="stroke:#000000;stroke-width:1.5;" x1="87" x2="152.876" y1="282.2969" y2="282.2969"/><text fill="#000000" font-family="sans-serif" font-size="14" font-weight="700" lengthAdjust="spacing" textLength="52.876" x="91" y="274.9951">Values</text></g><g class="entity" data-qualified-name="Environments.empty" data-source-line="2" id="ent0002"><rect fill="#F1F1F1" height="20.2969" rx="2.5" ry="2.5" style="stroke:#181818;stroke-width:0.5;" width="67.1289" x="321.5" y="49"/><text fill="#000000" font-family="sans-serif" font-size="14" lengthAdjust="spacing" textLength="53.1289" x="328.5" y="63.9951">EnvNull</text></g><g class="entity" data-qualified-name="Environments.decls" data-source-line="12" id="ent0005"><rect fill="#F1F1F1" height="20.2969" rx="2.5" ry="2.5" style="stroke:#181818;stroke-width:0.5;" width="74.1768" x="196" y="49"/><text fill="#000000" font-family="sans-serif" font-size="14" lengthAdjust="spacing" textLength="60.1768" x="203" y="63.9951">LetDecls</text></g><g class="entity" data-qualified-name="Environments.body" data-source-line="35" id="ent0013"><rect fill="#F1F1F1" height="20.2969" rx="2.5" ry="2.5" style="stroke:#181818;stroke-width:0.5;" width="71.2441" x="73.5" y="49"/><text fill="#000000" font-family="sans-serif" font-size="14" lengthAdjust="spacing" textLength="57.2441" x="80.5" y="63.9951">LetBody</text></g><g class="entity" data-qualified-name="Bindings.DeclsBindings" data-source-line="7" id="ent0004"><rect fill="#F1F1F1" height="20.2969" rx="2.5" ry="2.5" style="stroke:#181818;stroke-width:0.5;" width="112.4717" x="177" y="176"/><text fill="#000000" font-family="sans-serif" font-size="14" lengthAdjust="spacing" textLength="98.4717" x="184" y="190.9951">DeclsBindings</text></g><g class="entity" data-qualified-name="Bindings.LetBindings" data-source-line="28" id="ent0011"><rect fill="#F1F1F1" height="60.8906" rx="2.5" ry="2.5" style="stroke:#181818;stroke-width:0.5;" width="96.0996" x="30" y="156"/><text fill="#000000" font-family="sans-serif" font-size="14" lengthAdjust="spacing" textLength="82.0996" x="37" y="170.9951">LetBindings</text><line style="stroke:#181818;stroke-width:1;" x1="30" x2="126.0996" y1="176.2969" y2="176.2969"/><text fill="#000000" font-family="sans-serif" font-size="14" lengthAdjust="spacing" textLength="8.2852" x="35" y="191.292">x</text><text fill="#000000" font-family="sans-serif" font-size="14" lengthAdjust="spacing" textLength="43.5791" x="53.2852" y="191.292">3 (ref)</text><line style="stroke:#181818;stroke-width:1;" x1="48.2852" x2="48.2852" y1="176.2969" y2="196.5938"/><line style="stroke:#181818;stroke-width:1;" x1="30" x2="126.0996" y1="196.5938" y2="196.5938"/><text fill="#000000" font-family="sans-serif" font-size="14" lengthAdjust="spacing" textLength="4.9287" x="75.5854" y="211.5889">f</text></g><g class="entity" data-qualified-name="Values.Proc" data-source-line="20" id="ent0009"><rect fill="#F1F1F1" height="81.1875" rx="2.5" ry="2.5" style="stroke:#181818;stroke-width:0.5;" width="176.29" x="111" y="299"/><text fill="#000000" font-family="sans-serif" font-size="14" lengthAdjust="spacing" textLength="30.4609" x="183.9146" y="313.9951">Proc</text><line style="stroke:#181818;stroke-width:1;" x1="111" x2="287.29" y1="319.2969" y2="319.2969"/><text fill="#000000" font-family="sans-serif" font-size="14" lengthAdjust="spacing" textLength="52.6504" x="116" y="334.292">formals</text><text fill="#000000" font-family="sans-serif" font-size="14" lengthAdjust="spacing" textLength="5.4893" x="178.6504" y="334.292">t</text><line style="stroke:#181818;stroke-width:1;" x1="173.6504" x2="173.6504" y1="319.2969" y2="339.5938"/><line style="stroke:#181818;stroke-width:1;" x1="111" x2="287.29" y1="339.5938" y2="339.5938"/><text fill="#000000" font-family="sans-serif" font-size="14" lengthAdjust="spacing" textLength="34.624" x="125.0132" y="354.5889">body</text><text fill="#000000" font-family="sans-serif" font-size="14" lengthAdjust="spacing" textLength="103.6396" x="178.6504" y="354.5889">set t = add1(t)</text><line style="stroke:#181818;stroke-width:1;" x1="173.6504" x2="173.6504" y1="339.5938" y2="359.8906"/><line style="stroke:#181818;stroke-width:1;" x1="111" x2="287.29" y1="359.8906" y2="359.8906"/><text fill="#000000" font-family="sans-serif" font-size="14" lengthAdjust="spacing" textLength="25.7715" x="186.2593" y="374.8857">env</text></g><!--link decls to empty--><g class="link" data-entity-1="ent0005" data-entity-2="ent0002" data-link-type="dependency" data-source-line="16" id="lnk6"><path codeLine="16" d="M277.8,59 C289.76,59 296.72,59 308.68,59" fill="none" id="decls-to-empty" style="stroke:#181818;stroke-width:1;"/><polygon fill="#181818" points="313.68,59,304.68,55,308.68,59,304.68,63,313.68,59" style="stroke:#181818;stroke-width:1;stroke-linejoin:miter;stroke-miterlimit:10;"/></g><!--link decls to DeclsBindings--><g class="link" data-entity-1="ent0005" data-entity-2="ent0004" data-link-type="dependency" data-source-line="17" id="lnk7"><path codeLine="17" d="M233,76.86 C233,100.72 233,139.08 233,163.01" fill="none" id="decls-to-DeclsBindings" style="stroke:#181818;stroke-width:1;"/><polygon fill="#181818" points="233,168.01,237,159.01,233,163.01,229,159.01,233,168.01" style="stroke:#181818;stroke-width:1;stroke-linejoin:miter;stroke-miterlimit:10;"/></g><!--link Proc to decls--><g class="link" data-entity-1="ent0009" data-entity-2="ent0005" data-link-type="dependency" data-source-line="21" id="lnk10"><path d="M288,369 C404.09,369 375.2,207.02 313,109 C308.53,101.95 303.29,105.06 296,101 C282.89,93.69 273.0013,87.4668 261.5013,79.7468" fill="none" id="Proc-to-decls" style="stroke:#181818;stroke-width:1;"/><polygon fill="#181818" points="257.35,76.96,262.593,85.2973,261.5013,79.7468,267.0519,78.6552,257.35,76.96" style="stroke:#181818;stroke-width:1;stroke-linejoin:miter;stroke-miterlimit:10;"/></g><!--link LetBindings to Proc--><g class="link" data-entity-1="ent0011" data-entity-2="ent0009" data-link-type="dependency" data-source-line="29" id="lnk12"><path d="M127,206 C132.17,206 156.1549,251.9974 175.4649,290.6374" fill="none" id="LetBindings-to-Proc" style="stroke:#181818;stroke-width:1;"/><polygon fill="#181818" points="177.7,295.11,177.2548,285.2712,175.4649,290.6374,170.0987,288.8474,177.7,295.11" style="stroke:#181818;stroke-width:1;stroke-linejoin:miter;stroke-miterlimit:10;"/></g><!--link body to decls--><g class="link" data-entity-1="ent0013" data-entity-2="ent0005" data-link-type="dependency" data-source-line="39" id="lnk14"><path codeLine="39" d="M152.11,59 C164.12,59 171.12,59 183.13,59" fill="none" id="body-to-decls" style="stroke:#181818;stroke-width:1;"/><polygon fill="#181818" points="188.13,59,179.13,55,183.13,59,179.13,63,188.13,59" style="stroke:#181818;stroke-width:1;stroke-linejoin:miter;stroke-miterlimit:10;"/></g><!--link body to LetBindings--><g class="link" data-entity-1="ent0013" data-entity-2="ent0011" data-link-type="dependency" data-source-line="40" id="lnk15"><path codeLine="40" d="M104.82,76.86 C100.06,96.05 93.3728,123.0168 87.3828,147.1868" fill="none" id="body-to-LetBindings" style="stroke:#181818;stroke-width:1;"/><polygon fill="#181818" points="86.18,152.04,92.2275,144.2665,87.3828,147.1868,84.4624,142.3421,86.18,152.04" style="stroke:#181818;stroke-width:1;stroke-linejoin:miter;stroke-miterlimit:10;"/></g><?plantuml-src bL1B2u904BxlhnWwMP0GdVKWTOler7rpHv5q5Lqb4Vzx-_2n2mMrf_rc-5vJqVX9KuGpxxAwv0LoqS10GBw2Lh2HyskRvnkW3M1HYNvQZcGaf9h8KSPPnbE7UC8uR-Q5fZkJJpBVCbnGQAvMOUfdiyrW7vfuCvJOyLjTxZHlqT6_rMMijTLdMgYNb7L1fLWGWbY6ZvBrQjAW0041KCOEdjWkU-GTx9IztSRNgNuxd6phdCt2LhQNod04hyPazKwCisdegpP_7JcIrRIbxZYGXQon53Oj39BGIlO6?></g></svg>