<svg xmlns="http://www.w3.org/2000/svg" xmlns:xlink="http://www.w3.org/1999/xlink" contentStyleType="text/css" data-diagram-type="ACTIVITY" height="444px" preserveAspectRatio="none" style="width:206px;height:444px;background:#FFFFFF;" version="1.1" viewBox="0 0 206 444" width="206px" zoomAndPan="magnify"><?plantuml 1.2026.6?><defs/><g><ellipse cx="101.4189" cy="25" fill="#222222" rx="10" ry="10" style="stroke:#222222;stroke-width:1;"/><rect fill="none" height="318.2178" style="stroke:#000000;stroke-width:1.5;" width="170.8379" x="16" y="45"/><path d="M101.7354,45 L101.7354,54.2969 L91.7354,64.2969 L16,64.2969" fill="none" style="stroke:#000000;stroke-width:1.5;"/><text fill="#000000" font-family="sans-serif" font-size="14" lengthAdjust="spacing" textLength="75.7354" x="19" y="58.9951">interpreter</text><rect fill="none" height="196.7417" style="stroke:#000000;stroke-width:1.5;" width="150.8379" x="26" y="81.2969"/><path d="M80.8848,81.2969 L80.8848,90.5938 L70.8848,100.5938 L26,100.5938" fill="none" style="stroke:#000000;stroke-width:1.5;"/><text fill="#000000" font-family="sans-serif" font-size="14" lengthAdjust="spacing" textLength="44.8848" x="29" y="95.292">parser</text><rect fill="none" height="82.2656" style="stroke:#000000;stroke-width:1.5;" width="130.8379" x="36" y="110.5938"/><path d="M101.6855,110.5938 L101.6855,119.8906 L91.6855,129.8906 L36,129.8906" fill="none" style="stroke:#000000;stroke-width:1.5;"/><text fill="#000000" font-family="sans-serif" font-size="14" lengthAdjust="spacing" textLength="55.6855" x="39" y="124.5889">scanner</text><rect fill="#F1F1F1" height="33.9688" rx="12.5" ry="12.5" style="stroke:#181818;stroke-width:0.5;" width="110.8379" x="46" y="146.8906"/><text fill="#000000" font-family="sans-serif" font-size="12" lengthAdjust="spacing" textLength="90.8379" x="56" y="168.0293">lexical analysis</text><rect fill="#F1F1F1" height="33.9688" rx="12.5" ry="12.5" style="stroke:#181818;stroke-width:0.5;" width="126.6523" x="38.0928" y="232.0698"/><text fill="#000000" font-family="sans-serif" font-size="12" lengthAdjust="spacing" textLength="106.6523" x="48.0928" y="253.2085">syntactic analysis</text><rect fill="#F1F1F1" height="33.9688" rx="12.5" ry="12.5" style="stroke:#181818;stroke-width:0.5;" width="127.3203" x="37.7588" y="317.249"/><text fill="#000000" font-family="sans-serif" font-size="12" lengthAdjust="spacing" textLength="107.3203" x="47.7588" y="338.3877">semantic analysis</text><ellipse cx="101.4189" cy="413.4282" fill="none" rx="11" ry="11" style="stroke:#222222;stroke-width:1;"/><ellipse cx="101.4189" cy="413.4282" fill="#222222" rx="6" ry="6" style="stroke:#222222;stroke-width:1;"/><line style="stroke:#181818;stroke-width:1;" x1="101.4189" x2="101.4189" y1="180.8594" y2="232.0698"/><polygon fill="#181818" points="97.4189,222.0698,101.4189,232.0698,105.4189,222.0698,101.4189,226.0698" style="stroke:#181818;stroke-width:1;stroke-linejoin:miter;stroke-miterlimit:10;"/><text fill="#000000" font-family="sans-serif" font-size="11" lengthAdjust="spacing" textLength="36.8833" x="105.4189" y="210.5698">tokens</text><line style="stroke:#181818;stroke-width:1;" x1="101.4189" x2="101.4189" y1="266.0386" y2="317.249"/><polygon fill="#181818" points="97.4189,307.249,101.4189,317.249,105.4189,307.249,101.4189,311.249" style="stroke:#181818;stroke-width:1;stroke-linejoin:miter;stroke-miterlimit:10;"/><text fill="#000000" font-family="sans-serif" font-size="11" lengthAdjust="spacing" textLength="56.6113" x="105.4189" y="295.749">parse tree</text><line style="stroke:#181818;stroke-width:1;" x1="101.4189" x2="101.4189" y1="35" y2="146.8906"/><polygon fill="#181818" points="97.4189,136.8906,101.4189,146.8906,105.4189,136.8906,101.4189,140.8906" style="stroke:#181818;stroke-width:1;stroke-linejoin:miter;stroke-miterlimit:10;"/><text fill="#000000" font-family="sans-serif" font-size="11" lengthAdjust="spacing" textLength="31.5767" x="105.4189" y="79.3511">string</text><line style="stroke:#181818;stroke-width:1;" x1="101.4189" x2="101.4189" y1="351.2178" y2="402.4282"/><polygon fill="#181818" points="97.4189,392.4282,101.4189,402.4282,105.4189,392.4282,101.4189,396.4282" style="stroke:#181818;stroke-width:1;stroke-linejoin:miter;stroke-miterlimit:10;"/><text fill="#000000" font-family="sans-serif" font-size="11" lengthAdjust="spacing" textLength="56.8638" x="105.4189" y="380.9282">(behavior)</text><?plantuml-src ROx12W8n34Jl_OeUzU0FjE2_n18qMDEI176H_NUpBgnMdCCmpEH1r40iT3SoQXo93QKBkiTdYAxFvactUfoq0FEmBJeSeveGd_DGfueFAb0ZCDH9IVClPUsA_5NFMqewiK4nAdze9zy_HXF4jLx9f7W37g4v-FdkX1UuKvDz3cgjlm00?></g></svg>