<svg xmlns="http://www.w3.org/2000/svg" xmlns:xlink="http://www.w3.org/1999/xlink" contentStyleType="text/css" data-diagram-type="DESCRIPTION" height="614px" preserveAspectRatio="none" style="width:559px;height:614px;background:#FFFFFF;" version="1.1" viewBox="0 0 559 614" width="559px" zoomAndPan="magnify"><?plantuml 1.2026.6?><defs/><g><!--cluster Specification File--><g class="cluster" data-qualified-name="Specification File" data-source-line="1" id="ent0001"><path d="M6,186.29 L6,522.18 A2.5,2.5 0 0 0 8.5,524.68 L233.5,524.68 A2.5,2.5 0 0 0 236,522.18 L236,193.79 L226,183.79 L8.5,183.79 A2.5,2.5 0 0 0 6,186.29" fill="none" style="stroke:#181818;stroke-width:1;"/><path d="M226,183.79 L226,191.29 A2.5,2.5 0 0 0 228.5,193.79 L236,193.79" fill="none" style="stroke:#181818;stroke-width:1;"/><text fill="#000000" font-family="sans-serif" font-size="14" font-weight="700" lengthAdjust="spacing" textLength="135.9395" x="53.0303" y="198.7851">Specification File</text></g><!--cluster interpreter--><g class="cluster" data-qualified-name="interpreter" data-source-line="9" id="ent0006"><polygon fill="none" points="260,99.29,270,89.29,534,89.29,534,518.18,524,528.18,260,528.18,260,99.29" style="stroke:#181818;stroke-width:1;stroke-linejoin:miter;stroke-miterlimit:10;"/><line style="stroke:#181818;stroke-width:1;" x1="524" x2="534" y1="99.29" y2="89.29"/><line style="stroke:#181818;stroke-width:1;" x1="260" x2="524" y1="99.29" y2="99.29"/><line style="stroke:#181818;stroke-width:1;" x1="524" x2="524" y1="99.29" y2="528.18"/><text fill="#000000" font-family="sans-serif" font-size="14" font-weight="700" lengthAdjust="spacing" textLength="87.3701" x="349.3149" y="115.2851">interpreter</text></g><!--cluster parser--><g class="cluster" data-qualified-name="interpreter.parser" data-source-line="10" id="ent0007"><rect fill="none" height="265.6" rx="2.5" ry="2.5" style="stroke:#181818;stroke-width:1;" width="226" x="284" y="137.29"/><rect fill="none" height="10" style="stroke:#181818;stroke-width:1;" width="15" x="490" y="142.29"/><rect fill="none" height="2" style="stroke:#181818;stroke-width:1;" width="4" x="488" y="144.29"/><rect fill="none" height="2" style="stroke:#181818;stroke-width:1;" width="4" x="488" y="148.29"/><text fill="#000000" font-family="sans-serif" font-size="14" font-weight="700" lengthAdjust="spacing" textLength="51.1055" x="371.4473" y="163.2851">parser</text></g><!--cluster scanner--><g class="cluster" data-qualified-name="interpreter.parser.scanner" data-source-line="11" id="ent0008"><rect fill="none" height="97.3" rx="2.5" ry="2.5" style="stroke:#181818;stroke-width:1;" width="178" x="308" y="180.29"/><rect fill="none" height="10" style="stroke:#181818;stroke-width:1;" width="15" x="466" y="185.29"/><rect fill="none" height="2" style="stroke:#181818;stroke-width:1;" width="4" x="464" y="187.29"/><rect fill="none" height="2" style="stroke:#181818;stroke-width:1;" width="4" x="464" y="191.29"/><text fill="#000000" font-family="sans-serif" font-size="14" font-weight="700" lengthAdjust="spacing" textLength="62.4121" x="365.7939" y="206.2851">scanner</text></g><!--entity lexspec--><g class="entity" data-qualified-name="Specification File.lexspec" data-source-line="2" id="ent0002"><rect fill="#F1F1F1" height="39.2969" rx="2.5" ry="2.5" style="stroke:#181818;stroke-width:0.5;" width="167.5869" x="48.21" y="218.79"/><polygon fill="#F1F1F1" points="198.7969,223.79,198.7969,237.79,210.7969,237.79,210.7969,229.79,204.7969,223.79,198.7969,223.79" style="stroke:#181818;stroke-width:0.5;stroke-linejoin:miter;stroke-miterlimit:10;"/><line style="stroke:#181818;stroke-width:0.5;" x1="204.7969" x2="204.7969" y1="223.79" y2="229.79"/><line style="stroke:#181818;stroke-width:0.5;" x1="210.7969" x2="204.7969" y1="229.79" y2="229.79"/><text fill="#000000" font-family="sans-serif" font-size="14" lengthAdjust="spacing" textLength="137.5869" x="58.21" y="244.7851">lexical specification</text></g><!--entity synspec--><g class="entity" data-qualified-name="Specification File.synspec" data-source-line="3" id="ent0003"><rect fill="#F1F1F1" height="39.2969" rx="2.5" ry="2.5" style="stroke:#181818;stroke-width:0.5;" width="198.5059" x="21.75" y="344.09"/><polygon fill="#F1F1F1" points="203.2559,349.09,203.2559,363.09,215.2559,363.09,215.2559,355.09,209.2559,349.09,203.2559,349.09" style="stroke:#181818;stroke-width:0.5;stroke-linejoin:miter;stroke-miterlimit:10;"/><line style="stroke:#181818;stroke-width:0.5;" x1="209.2559" x2="209.2559" y1="349.09" y2="355.09"/><line style="stroke:#181818;stroke-width:0.5;" x1="215.2559" x2="209.2559" y1="355.09" y2="355.09"/><text fill="#000000" font-family="sans-serif" font-size="14" lengthAdjust="spacing" textLength="168.5059" x="31.75" y="370.0851">syntactical specification</text></g><!--entity semspec--><g class="entity" data-qualified-name="Specification File.semspec" data-source-line="4" id="ent0004"><rect fill="#F1F1F1" height="39.2969" rx="2.5" ry="2.5" style="stroke:#181818;stroke-width:0.5;" width="186.8164" x="31.59" y="469.39"/><polygon fill="#F1F1F1" points="201.4064,474.39,201.4064,488.39,213.4064,488.39,213.4064,480.39,207.4064,474.39,201.4064,474.39" style="stroke:#181818;stroke-width:0.5;stroke-linejoin:miter;stroke-miterlimit:10;"/><line style="stroke:#181818;stroke-width:0.5;" x1="207.4064" x2="207.4064" y1="474.39" y2="480.39"/><line style="stroke:#181818;stroke-width:0.5;" x1="213.4064" x2="207.4064" y1="480.39" y2="480.39"/><text fill="#000000" font-family="sans-serif" font-size="14" lengthAdjust="spacing" textLength="156.8164" x="41.59" y="495.3851">semantic specification</text></g><!--entity seman--><g class="entity" data-qualified-name="interpreter.seman" data-source-line="16" id="ent0011"><rect fill="#F1F1F1" height="46.2969" rx="2.5" ry="2.5" style="stroke:#181818;stroke-width:0.5;" width="165.207" x="290.4" y="465.89"/><rect fill="#F1F1F1" height="10" style="stroke:#181818;stroke-width:0.5;" width="15" x="435.607" y="470.89"/><rect fill="#F1F1F1" height="2" style="stroke:#181818;stroke-width:0.5;" width="4" x="433.607" y="472.89"/><rect fill="#F1F1F1" height="2" style="stroke:#181818;stroke-width:0.5;" width="4" x="433.607" y="476.89"/><text fill="#000000" font-family="sans-serif" font-size="14" lengthAdjust="spacing" textLength="125.207" x="305.4" y="498.8851">semantic analysis</text></g><!--entity synan--><g class="entity" data-qualified-name="interpreter.parser.synan" data-source-line="14" id="ent0010"><rect fill="#F1F1F1" height="46.2969" rx="2.5" ry="2.5" style="stroke:#181818;stroke-width:0.5;" width="176.8965" x="299.55" y="340.59"/><rect fill="#F1F1F1" height="10" style="stroke:#181818;stroke-width:0.5;" width="15" x="456.4465" y="345.59"/><rect fill="#F1F1F1" height="2" style="stroke:#181818;stroke-width:0.5;" width="4" x="454.4465" y="347.59"/><rect fill="#F1F1F1" height="2" style="stroke:#181818;stroke-width:0.5;" width="4" x="454.4465" y="351.59"/><text fill="#000000" font-family="sans-serif" font-size="14" lengthAdjust="spacing" textLength="136.8965" x="314.55" y="373.5851">syntactical analysis</text></g><!--entity lexan--><g class="entity" data-qualified-name="interpreter.parser.scanner.lexan" data-source-line="12" id="ent0009"><rect fill="#F1F1F1" height="46.2969" rx="2.5" ry="2.5" style="stroke:#181818;stroke-width:0.5;" width="145.9775" x="324.01" y="215.29"/><rect fill="#F1F1F1" height="10" style="stroke:#181818;stroke-width:0.5;" width="15" x="449.9875" y="220.29"/><rect fill="#F1F1F1" height="2" style="stroke:#181818;stroke-width:0.5;" width="4" x="447.9875" y="222.29"/><rect fill="#F1F1F1" height="2" style="stroke:#181818;stroke-width:0.5;" width="4" x="447.9875" y="226.29"/><text fill="#000000" font-family="sans-serif" font-size="14" lengthAdjust="spacing" textLength="105.9775" x="339.01" y="248.2851">lexical analysis</text></g><!--entity source--><g class="entity" data-qualified-name="source" data-source-line="7" id="ent0005"><path d="M363.6,8.5 L363.6,39.7969 A2.5,2.5 0 0 0 366.1,42.2969 L427.8988,42.2969 A2.5,2.5 0 0 0 430.3988,39.7969 L430.3988,16 L420.3988,6 L366.1,6 A2.5,2.5 0 0 0 363.6,8.5" fill="#F1F1F1" style="stroke:#181818;stroke-width:0.5;"/><path d="M420.3988,6 L420.3988,13.5 A2.5,2.5 0 0 0 422.8988,16 L430.3988,16" fill="#F1F1F1" style="stroke:#181818;stroke-width:0.5;"/><text fill="#000000" font-family="sans-serif" font-size="14" lengthAdjust="spacing" textLength="46.7988" x="373.6" y="28.9951">source</text></g><!--entity behavior--><g class="entity" data-qualified-name="behavior" data-source-line="19" id="ent0012"><text fill="#000000" font-family="sans-serif" font-size="14" lengthAdjust="spacing" textLength="61.4482" x="342.28" y="598.1751">behavior</text></g><!--link lexspec to lexan--><g class="link" data-entity-1="ent0002" data-entity-2="ent0009" data-link-type="dependency" data-source-line="21" id="lnk13"><path d="M216.11,238.44 C251.91,238.44 282.71,238.44 318.51,238.44" fill="none" id="lexspec-to-lexan" style="stroke:#181818;stroke-width:1;"/><polygon fill="#181818" points="323.51,238.44,314.51,234.44,318.51,238.44,314.51,242.44,323.51,238.44" style="stroke:#181818;stroke-width:1;stroke-linejoin:miter;stroke-miterlimit:10;"/></g><!--link synspec to synan--><g class="link" data-entity-1="ent0003" data-entity-2="ent0010" data-link-type="dependency" data-source-line="22" id="lnk14"><path d="M220.6,363.74 C246.76,363.74 267.91,363.74 294.07,363.74" fill="none" id="synspec-to-synan" style="stroke:#181818;stroke-width:1;"/><polygon fill="#181818" points="299.07,363.74,290.07,359.74,294.07,363.74,290.07,367.74,299.07,363.74" style="stroke:#181818;stroke-width:1;stroke-linejoin:miter;stroke-miterlimit:10;"/></g><!--link semspec to seman--><g class="link" data-entity-1="ent0004" data-entity-2="ent0011" data-link-type="dependency" data-source-line="23" id="lnk15"><path d="M218.48,489.03 C242.33,489.03 261.17,489.03 285.01,489.03" fill="none" id="semspec-to-seman" style="stroke:#181818;stroke-width:1;"/><polygon fill="#181818" points="290.01,489.03,281.01,485.03,285.01,489.03,281.01,493.03,290.01,489.03" style="stroke:#181818;stroke-width:1;stroke-linejoin:miter;stroke-miterlimit:10;"/></g><!--link lexspec to synspec--><!--link synspec to semspec--><!--link source to lexan--><g class="link" data-entity-1="ent0005" data-entity-2="ent0009" data-link-type="dependency" data-source-line="28" id="lnk18"><path d="M397,42.52 C397,80.84 397,167.59 397,210.11" fill="none" id="source-to-lexan" style="stroke:#181818;stroke-width:1;"/><polygon fill="#181818" points="397,215.11,401,206.11,397,210.11,393,206.11,397,215.11" style="stroke:#181818;stroke-width:1;stroke-linejoin:miter;stroke-miterlimit:10;"/></g><!--link lexan to synan--><g class="link" data-entity-1="ent0009" data-entity-2="ent0010" data-link-type="dependency" data-source-line="29" id="lnk19"><path d="M395.35,262.06 C393.73,284.3 391.6239,313.0833 390.0039,335.2833" fill="none" id="lexan-to-synan" style="stroke:#181818;stroke-width:1;"/><polygon fill="#181818" points="389.64,340.27,394.2844,331.585,390.0039,335.2833,386.3056,331.0027,389.64,340.27" style="stroke:#181818;stroke-width:1;stroke-linejoin:miter;stroke-miterlimit:10;"/><text fill="#000000" font-family="sans-serif" font-size="13" lengthAdjust="spacing" textLength="43.5894" x="394.04" y="306.6569">tokens</text></g><!--link synan to seman--><g class="link" data-entity-1="ent0010" data-entity-2="ent0011" data-link-type="dependency" data-source-line="30" id="lnk20"><path d="M385.25,387.35 C382.54,409.6 379.0339,438.4066 376.3339,460.5966" fill="none" id="synan-to-seman" style="stroke:#181818;stroke-width:1;"/><polygon fill="#181818" points="375.73,465.56,380.7878,457.109,376.3339,460.5966,372.8464,456.1428,375.73,465.56" style="stroke:#181818;stroke-width:1;stroke-linejoin:miter;stroke-miterlimit:10;"/><text fill="#000000" font-family="sans-serif" font-size="13" lengthAdjust="spacing" textLength="26.438" x="382.4" y="431.9569">tree</text></g><!--link seman to behavior--><g class="link" data-entity-1="ent0011" data-entity-2="ent0012" data-link-type="dependency" data-source-line="31" id="lnk21"><path d="M373,512.48 C373,531.19 373,552.46 373,569.68" fill="none" id="seman-to-behavior" style="stroke:#181818;stroke-width:1;"/><polygon fill="#181818" points="373,574.68,377,565.68,373,569.68,369,565.68,373,574.68" style="stroke:#181818;stroke-width:1;stroke-linejoin:miter;stroke-miterlimit:10;"/></g><?plantuml-src XP51ReGm34NtFeN5dWjqqMKlqELe5fvWD563WvAqAgguUvq90JAgL1PHykrd-vlHEiRkVMPZHsieMI_ufbg7Fu3wKKXs99FGyNVKBAI8dTurrs4yOrsR7nVPy_MULFkVuUbWU29Hv1bO0SOyS_IVmJ20-87HIk8m1zPpczluQVR2ad2c47Uv3KL38asiZQjFaiOn2RabsjZjnFfNtKKsxkoyPTUdCHz-M-S7eAOTtTZXZU_qPNtGz_O_-jSo9jI5g_3e3tMRMSWbJypbReU1vLfoitRWvrYf052MZVtUh6ochxtm1PF_O8bGddtjcGE16SeZozN1Bm00?></g></svg>