<svg xmlns="http://www.w3.org/2000/svg" xmlns:xlink="http://www.w3.org/1999/xlink" contentStyleType="text/css" data-diagram-type="DESCRIPTION" height="248px" preserveAspectRatio="none" style="width:512px;height:248px;background:#FFFFFF;" version="1.1" viewBox="0 0 512 248" width="512px" zoomAndPan="magnify"><?plantuml 1.2026.6?><defs/><g><!--entity designer--><g class="entity" data-qualified-name="designer" data-source-line="1" id="ent0001"><ellipse cx="60.0362" cy="14" fill="#F1F1F1" rx="8" ry="8" style="stroke:#181818;stroke-width:0.5;"/><path d="M60.0362,22 L60.0362,49 M47.0362,30 L73.0363,30 M60.0362,49 L47.0362,64 M60.0362,49 L73.0363,64" fill="none" style="stroke:#181818;stroke-width:0.5;"/><text fill="#000000" font-family="sans-serif" font-size="14" lengthAdjust="spacing" textLength="60.8125" x="29.63" y="78.4951">designer</text></g><!--entity programmer--><g class="entity" data-qualified-name="programmer" data-source-line="2" id="ent0002"><ellipse cx="50.0371" cy="167.29" fill="#F1F1F1" rx="8" ry="8" style="stroke:#181818;stroke-width:0.5;"/><path d="M50.0371,175.29 L50.0371,202.29 M37.0371,183.29 L63.0371,183.29 M50.0371,202.29 L37.0371,217.29 M50.0371,202.29 L63.0371,217.29" fill="none" style="stroke:#181818;stroke-width:0.5;"/><text fill="#000000" font-family="sans-serif" font-size="14" lengthAdjust="spacing" textLength="88.0742" x="6" y="231.7851">programmer</text></g><!--entity specification--><g class="entity" data-qualified-name="specification" data-source-line="4" id="ent0003"><rect fill="#F1F1F1" height="39.2969" rx="2.5" ry="2.5" style="stroke:#181818;stroke-width:0.5;" width="118.293" x="165.89" y="24"/><polygon fill="#F1F1F1" points="267.183,29,267.183,43,279.183,43,279.183,35,273.183,29,267.183,29" style="stroke:#181818;stroke-width:0.5;stroke-linejoin:miter;stroke-miterlimit:10;"/><line style="stroke:#181818;stroke-width:0.5;" x1="273.183" x2="273.183" y1="29" y2="35"/><line style="stroke:#181818;stroke-width:0.5;" x1="279.183" x2="273.183" y1="35" y2="35"/><text fill="#000000" font-family="sans-serif" font-size="14" lengthAdjust="spacing" textLength="88.293" x="175.89" y="49.9951">specification</text></g><!--entity plcc--><g class="entity" data-qualified-name="plcc" data-source-line="8" id="ent0004"><rect fill="#F1F1F1" height="36.2969" rx="35" ry="35" style="stroke:#181818;stroke-width:0.5;" width="48.1709" x="318.95" y="25.5"/><text fill="#000000" font-family="sans-serif" font-size="14" lengthAdjust="spacing" textLength="28.1709" x="328.95" y="48.4951">plcc</text></g><!--entity interpreter--><g class="entity" data-qualified-name="interpreter" data-source-line="10" id="ent0005"><rect fill="#F1F1F1" height="36.2969" rx="35" ry="35" style="stroke:#181818;stroke-width:0.5;" width="95.7354" x="295.17" y="178.79"/><text fill="#000000" font-family="sans-serif" font-size="14" lengthAdjust="spacing" textLength="75.7354" x="305.17" y="201.7851">interpreter</text></g><!--entity program--><g class="entity" data-qualified-name="program" data-source-line="14" id="ent0006"><rect fill="#F1F1F1" height="39.2969" rx="2.5" ry="2.5" style="stroke:#181818;stroke-width:0.5;" width="90.0674" x="170" y="177.29"/><polygon fill="#F1F1F1" points="243.0674,182.29,243.0674,196.29,255.0674,196.29,255.0674,188.29,249.0674,182.29,243.0674,182.29" style="stroke:#181818;stroke-width:0.5;stroke-linejoin:miter;stroke-miterlimit:10;"/><line style="stroke:#181818;stroke-width:0.5;" x1="249.0674" x2="249.0674" y1="182.29" y2="188.29"/><line style="stroke:#181818;stroke-width:0.5;" x1="255.0674" x2="249.0674" y1="188.29" y2="188.29"/><text fill="#000000" font-family="sans-serif" font-size="14" lengthAdjust="spacing" textLength="60.0674" x="180" y="203.2851">program</text></g><!--entity behavior--><g class="entity" data-qualified-name="behavior" data-source-line="18" id="ent0007"><text fill="#000000" font-family="sans-serif" font-size="14" lengthAdjust="spacing" textLength="61.4482" x="436.31" y="201.7851">behavior</text></g><!--link designer to specification--><g class="link" data-entity-1="ent0001" data-entity-2="ent0003" data-link-type="dependency" data-source-line="20" id="lnk8"><path d="M90.69,43.64 C111.65,43.64 135.14,43.64 160.49,43.64" fill="none" id="designer-to-specification" style="stroke:#181818;stroke-width:1;stroke-dasharray:7,7;"/><polygon fill="#181818" points="165.49,43.64,156.49,39.64,160.49,43.64,156.49,47.64,165.49,43.64" style="stroke:#181818;stroke-width:1;stroke-linejoin:miter;stroke-miterlimit:10;"/><text fill="#000000" font-family="sans-serif" font-size="13" lengthAdjust="spacing" textLength="39.457" x="108.67" y="36.7069">writes</text></g><!--link specification to plcc--><g class="link" data-entity-1="ent0003" data-entity-2="ent0004" data-link-type="dependency" data-source-line="21" id="lnk9"><path d="M284.5,43.64 C295.93,43.64 302.36,43.64 313.8,43.64" fill="none" id="specification-to-plcc" style="stroke:#181818;stroke-width:1;"/><polygon fill="#181818" points="318.8,43.64,309.8,39.64,313.8,43.64,309.8,47.64,318.8,43.64" style="stroke:#181818;stroke-width:1;stroke-linejoin:miter;stroke-miterlimit:10;"/></g><!--link plcc to interpreter--><g class="link" data-entity-1="ent0004" data-entity-2="ent0005" data-link-type="dependency" data-source-line="22" id="lnk10"><path d="M343.04,62 C343.04,91.03 343.04,144.12 343.04,173.32" fill="none" id="plcc-to-interpreter" style="stroke:#181818;stroke-width:1;stroke-dasharray:7,7;"/><polygon fill="#181818" points="343.04,178.32,347.04,169.32,343.04,173.32,339.04,169.32,343.04,178.32" style="stroke:#181818;stroke-width:1;stroke-linejoin:miter;stroke-miterlimit:10;"/><text fill="#000000" font-family="sans-serif" font-size="13" lengthAdjust="spacing" textLength="65.6665" x="344.04" y="124.8569">generates</text></g><!--link program to interpreter--><g class="link" data-entity-1="ent0006" data-entity-2="ent0005" data-link-type="dependency" data-source-line="23" id="lnk11"><path d="M260.54,196.94 C271.92,196.94 278.31,196.94 289.7,196.94" fill="none" id="program-to-interpreter" style="stroke:#181818;stroke-width:1;"/><polygon fill="#181818" points="294.7,196.94,285.7,192.94,289.7,196.94,285.7,200.94,294.7,196.94" style="stroke:#181818;stroke-width:1;stroke-linejoin:miter;stroke-miterlimit:10;"/></g><!--link interpreter to behavior--><g class="link" data-entity-1="ent0005" data-entity-2="ent0007" data-link-type="dependency" data-source-line="24" id="lnk12"><path d="M390.99,196.94 C402.67,196.94 409.36,196.94 421.04,196.94" fill="none" id="interpreter-to-behavior" style="stroke:#181818;stroke-width:1;"/><polygon fill="#181818" points="426.04,196.94,417.04,192.94,421.04,196.94,417.04,200.94,426.04,196.94" style="stroke:#181818;stroke-width:1;stroke-linejoin:miter;stroke-miterlimit:10;"/></g><!--link programmer to program--><g class="link" data-entity-1="ent0002" data-entity-2="ent0006" data-link-type="dependency" data-source-line="25" id="lnk13"><path d="M94.25,196.94 C117.55,196.94 141.07,196.94 164.55,196.94" fill="none" id="programmer-to-program" style="stroke:#181818;stroke-width:1;stroke-dasharray:7,7;"/><polygon fill="#181818" points="169.55,196.94,160.55,192.94,164.55,196.94,160.55,200.94,169.55,196.94" style="stroke:#181818;stroke-width:1;stroke-linejoin:miter;stroke-miterlimit:10;"/><text fill="#000000" font-family="sans-serif" font-size="13" lengthAdjust="spacing" textLength="39.457" x="112.54" y="190.0069">writes</text></g><?plantuml-src NP1B3iCW34JtFeKla1mWYroawiAX3hMK16HGU_sQ5l8f2qippE0doEMW-E0aVcC5-igemIkjgnb0ccKs6rDa9xCuoX8sl07QkNXm1qXM9yyO5-SE9LjcZSesQ_7abDg-f6wkgQfAOg695vpuIIy9XjM8iH__o0PygsHESBMxyGTL1lRMEaCDdkqjAgr6q5qIS4xRrGvoV5KXQUN6y040?></g></svg>