<svg xmlns="http://www.w3.org/2000/svg" xmlns:xlink="http://www.w3.org/1999/xlink" contentStyleType="text/css" data-diagram-type="CLASS" height="154px" preserveAspectRatio="none" style="width:312px;height:154px;background:#FFFFFF;" version="1.1" viewBox="0 0 312 154" width="312px" zoomAndPan="magnify"><?plantuml 1.2026.6?><defs/><g><g class="entity" data-qualified-name="EmptyEnv" data-source-line="1" id="ent0001"><rect fill="#F1F1F1" height="20.2969" rx="2.5" ry="2.5" style="stroke:#181818;stroke-width:0.5;" width="58.9121" x="240" y="7"/><text fill="#000000" font-family="sans-serif" font-size="14" lengthAdjust="spacing" textLength="44.9121" x="247" y="21.9951">empty</text></g><g class="entity" data-qualified-name="OuterBindings" data-source-line="4" id="ent0002"><rect fill="#F1F1F1" height="40.5938" rx="2.5" ry="2.5" style="stroke:#181818;stroke-width:0.5;" width="74.1973" x="132" y="99"/><text fill="#000000" font-family="sans-serif" font-size="14" lengthAdjust="spacing" textLength="60.1973" x="139" y="113.9951">Bindings</text><line style="stroke:#181818;stroke-width:1;" x1="132" x2="206.1973" y1="119.2969" y2="119.2969"/><text fill="#000000" font-family="sans-serif" font-size="14" lengthAdjust="spacing" textLength="8.2852" x="137" y="134.292">x</text><text fill="#000000" font-family="sans-serif" font-size="14" lengthAdjust="spacing" textLength="8.9072" x="155.2852" y="134.292">3</text><line style="stroke:#181818;stroke-width:1;" x1="150.2852" x2="150.2852" y1="119.2969" y2="139.5938"/></g><g class="entity" data-qualified-name="OuterEnv" data-source-line="8" id="ent0003"><rect fill="#F1F1F1" height="20.2969" rx="2.5" ry="2.5" style="stroke:#181818;stroke-width:0.5;" width="51.2969" x="137.5" y="7"/><text fill="#000000" font-family="sans-serif" font-size="14" lengthAdjust="spacing" textLength="37.2969" x="144.5" y="21.9951">outer</text></g><g class="entity" data-qualified-name="InnerBindings" data-source-line="14" id="ent0006"><rect fill="#F1F1F1" height="40.5938" rx="2.5" ry="2.5" style="stroke:#181818;stroke-width:0.5;" width="74.1973" x="7" y="99"/><text fill="#000000" font-family="sans-serif" font-size="14" lengthAdjust="spacing" textLength="60.1973" x="14" y="113.9951">Bindings</text><line style="stroke:#181818;stroke-width:1;" x1="7" x2="81.1973" y1="119.2969" y2="119.2969"/><text fill="#000000" font-family="sans-serif" font-size="14" lengthAdjust="spacing" textLength="8.2852" x="12" y="134.292">x</text><text fill="#000000" font-family="sans-serif" font-size="14" lengthAdjust="spacing" textLength="8.9072" x="30.2852" y="134.292">4</text><line style="stroke:#181818;stroke-width:1;" x1="25.2852" x2="25.2852" y1="119.2969" y2="139.5938"/></g><g class="entity" data-qualified-name="InnerEnv" data-source-line="18" id="ent0007"><rect fill="#F1F1F1" height="20.2969" rx="2.5" ry="2.5" style="stroke:#181818;stroke-width:0.5;" width="50.0049" x="30" y="7"/><text fill="#000000" font-family="sans-serif" font-size="14" lengthAdjust="spacing" textLength="36.0049" x="37" y="21.9951">inner</text></g><!--link OuterEnv to EmptyEnv--><g class="link" data-entity-1="ent0003" data-entity-2="ent0001" data-link-type="dependency" data-source-line="11" id="lnk4"><path codeLine="11" d="M196.12,17 C208.18,17 215.23,17 227.28,17" fill="none" id="OuterEnv-to-EmptyEnv" style="stroke:#181818;stroke-width:1;"/><polygon fill="#181818" points="232.28,17,223.28,13,227.28,17,223.28,21,232.28,17" style="stroke:#181818;stroke-width:1;stroke-linejoin:miter;stroke-miterlimit:10;"/></g><!--link OuterEnv to OuterBindings--><g class="link" data-entity-1="ent0003" data-entity-2="ent0002" data-link-type="dependency" data-source-line="12" id="lnk5"><path codeLine="12" d="M164.02,34.96 C165.01,51.57 166.2406,71.979 167.3406,90.319" fill="none" id="OuterEnv-to-OuterBindings" style="stroke:#181818;stroke-width:1;"/><polygon fill="#181818" points="167.64,95.31,171.094,86.0867,167.3406,90.319,163.1083,86.5656,167.64,95.31" style="stroke:#181818;stroke-width:1;stroke-linejoin:miter;stroke-miterlimit:10;"/></g><!--link InnerEnv to OuterEnv--><g class="link" data-entity-1="ent0007" data-entity-2="ent0003" data-link-type="dependency" data-source-line="21" id="lnk8"><path codeLine="21" d="M87.91,17 C101.79,17 110.68,17 124.56,17" fill="none" id="InnerEnv-to-OuterEnv" style="stroke:#181818;stroke-width:1;"/><polygon fill="#181818" points="129.56,17,120.56,13,124.56,17,120.56,21,129.56,17" style="stroke:#181818;stroke-width:1;stroke-linejoin:miter;stroke-miterlimit:10;"/></g><!--link InnerEnv to InnerBindings--><g class="link" data-entity-1="ent0007" data-entity-2="ent0006" data-link-type="dependency" data-source-line="22" id="lnk9"><path codeLine="22" d="M53.13,34.96 C51.31,51.57 49.0547,71.9998 47.0447,90.3398" fill="none" id="InnerEnv-to-InnerBindings" style="stroke:#181818;stroke-width:1;"/><polygon fill="#181818" points="46.5,95.31,51.4567,86.7993,47.0447,90.3398,43.5043,85.9278,46.5,95.31" style="stroke:#181818;stroke-width:1;stroke-linejoin:miter;stroke-miterlimit:10;"/></g><?plantuml-src oqqiK51ApIqegLHII2nMS0MnNFFA5AgvQhcuSa6IJfbvAPbvwSLWUV_IajGYc0XGaG8GL2ZOsYaOmzNdWvGW5CCDW_DqxU3M80a2HL4CnsQxPruUTjjDuBPdWfGW5CDjX_DWze1iHmW2HL4C1m00?></g></svg>